<?xml version="1.0" standalone="no"?>
<!DOCTYPE svg PUBLIC "-//W3C//DTD SVG 20010904//EN"
 "http://www.w3.org/TR/2001/REC-SVG-20010904/DTD/svg10.dtd">
<svg version="1.0" xmlns="http://www.w3.org/2000/svg"
 width="417.000000pt" height="417.000000pt" viewBox="0 0 417.000000 417.000000"
 preserveAspectRatio="xMidYMid meet">
<metadata>
Created by potrace 1.14, written by Peter Selinger 2001-2017
</metadata>
<g transform="translate(0.000000,417.000000) scale(0.100000,-0.100000)"
fill="#000000" stroke="none">
<path d="M2049 4155 c-1 -8 -2 -19 -3 -24 0 -5 -22 -38 -48 -74 -52 -72 -82
-128 -92 -170 -14 -58 28 -147 108 -229 20 -21 36 -47 36 -60 0 -13 3 -32 6
-43 5 -19 1 -20 -100 -17 -93 3 -105 2 -114 -15 -15 -28 -33 -756 -20 -828 3
-19 -2 -20 -82 -19 -47 0 -113 2 -147 3 -84 3 -241 -13 -308 -31 -22 -5 -51
-12 -65 -14 -14 -3 -52 -14 -85 -26 -49 -18 -85 -22 -195 -23 -198 -2 -266
-29 -279 -113 -10 -56 7 -159 35 -214 18 -35 35 -53 62 -66 48 -22 46 -19 48
-50 6 -93 24 -188 69 -377 19 -77 36 -153 39 -170 8 -46 23 -118 27 -134 3 -9
-7 -17 -26 -21 -56 -14 -270 -59 -309 -66 -21 -3 -46 -7 -55 -9 -9 -2 -44 -6
-76 -10 -174 -20 -199 -31 -190 -87 2 -13 9 -57 15 -98 18 -115 19 -123 26
-155 10 -46 41 -101 69 -123 20 -16 25 -29 25 -63 0 -38 10 -118 25 -209 2
-14 6 -54 10 -90 3 -36 8 -76 10 -90 3 -14 7 -36 10 -50 3 -14 14 -70 25 -125
11 -55 22 -115 25 -134 9 -52 32 -89 67 -107 27 -14 66 -17 233 -17 110 0 288
3 395 8 107 4 260 8 340 10 80 1 190 5 245 10 137 11 159 12 330 19 83 4 201
9 263 11 62 3 134 7 160 10 26 3 76 7 112 10 36 3 81 8 100 9 19 2 73 7 120
11 47 3 96 8 110 10 14 2 54 6 90 10 146 14 168 16 250 26 237 28 307 49 329
96 7 14 14 45 17 67 2 23 9 68 14 101 8 54 20 136 25 175 1 8 5 46 9 83 4 37
9 76 11 85 1 9 6 37 9 62 3 25 8 56 11 70 3 14 6 49 6 79 0 43 5 60 28 90 16
20 37 61 47 91 10 30 22 60 26 66 4 6 10 55 13 110 5 88 4 103 -14 131 -23 37
-71 60 -151 72 -30 5 -86 16 -125 24 -95 21 -124 25 -240 33 -92 6 -128 9
-163 13 -9 1 -11 11 -8 34 5 30 8 54 21 205 3 31 8 77 11 102 3 25 8 61 11 80
2 19 6 51 7 70 3 25 12 40 35 55 100 69 154 235 156 473 0 70 -2 75 -29 97
-45 36 -115 45 -381 51 -104 2 -217 0 -250 -5 -82 -14 -184 -21 -346 -26
l-135 -5 -1 313 c0 298 -7 464 -19 476 -3 3 -33 7 -67 7 -127 3 -117 -1 -117
44 0 22 3 41 8 41 7 2 64 6 94 8 31 2 50 32 45 68 -3 19 0 48 8 67 8 18 17 63
21 98 8 85 -5 113 -107 218 -43 45 -79 86 -79 91 0 16 -20 10 -21 -6z"/>
</g>
</svg>
